<svg xmlns="http://www.w3.org/2000/svg" xmlns:xlink="http://www.w3.org/1999/xlink" width="200" height="200" viewBox="0 0 200 200" fill="none"><g opacity="1"  transform="translate(0 0)  rotate(0)"><rect fill="#3C3C3C" opacity="1" transform="translate(0 0)  rotate(NaN)" x="0" y="0" width="200" height="200" rx="20" ry="20"/><mask id="bg-mask-0" fill="white"><use transform="translate(0 0)  rotate(NaN)" xlink:href="#path_0"></use></mask><g mask="url(#bg-mask-0)" ><path id="星形 1" fill-rule="evenodd" style="fill:#EECC33" opacity="1" d="M107.634 34.195C105.284 26.735 94.7242 26.735 92.3742 34.195L82.1142 66.715C81.0642 70.065 77.9742 72.325 74.4742 72.325L40.6742 72.245C32.9542 72.215 29.6842 82.065 35.8942 86.675L63.5942 107.165C66.3442 109.205 67.5042 112.775 66.4542 116.035L55.8942 149.025C53.5142 156.445 62.0642 162.545 68.3042 157.875L95.2142 137.775C98.0542 135.645 101.954 135.645 104.794 137.775L131.704 157.875C137.944 162.545 146.494 156.445 144.114 149.025L133.554 116.035C132.504 112.775 133.664 109.205 136.414 107.165L164.114 86.675C170.324 82.065 167.054 72.215 159.334 72.245L125.534 72.325C122.034 72.325 118.944 70.065 117.894 66.715L107.634 34.195Z"></path><path id="拼合图形" fill-rule="evenodd" style="fill:#00BBFF" opacity="1" d="M202 65.42L202 47.07C201.09 46.81 200.08 46.6 198.98 46.43L198.98 46C198.27 46.02 197.49 46.07 196.64 46.15C170.81 43.98 105.16 64.19 55 148C65.08 134.24 78.38 118.04 96.39 105.41C105.75 98.83 112.39 93.95 118.27 89.82C118.72 89.57 119.17 89.31 119.62 89.06C130.74 82.86 141.3 78.06 150.01 74.85C165.49 69.11 172.27 67.69 176.02 66.94C180.32 66.1 181.62 65.49 187.85 64.86C193.66 64.27 194.06 64.23 198.03 64.23C200.64 64.83 202 65.42 202 65.42Z"></path></g></g><defs><rect id="path_0" x="0" y="0" width="200" height="200" /></defs></svg>